<?xml version="1.0" encoding="UTF-8"?>
<!DOCTYPE svg PUBLIC "-//W3C//DTD SVG 1.1//EN" "http://www.w3.org/Graphics/SVG/1.1/DTD/svg11.dtd">
<!-- Creator: CorelDRAW -->
<svg xmlns="http://www.w3.org/2000/svg" xml:space="preserve" width="82.2599mm" height="86.6356mm" version="1.1" style="shape-rendering:geometricPrecision; text-rendering:geometricPrecision; image-rendering:optimizeQuality; fill-rule:evenodd; clip-rule:evenodd"
viewBox="0 0 2993.06 3152.27"
 xmlns:xlink="http://www.w3.org/1999/xlink"
 xmlns:xodm="http://www.corel.com/coreldraw/odm/2003">
 <defs>
  <style type="text/css">
   <![CDATA[
    .fil0 {fill:#D2AE6D}
    .fil1 {fill:#D2AE6D;fill-rule:nonzero}
   ]]>
  </style>
 </defs>
 <g id="Capa_x0020_1">
  <metadata id="CorelCorpID_0Corel-Layer"/>
  <g id="_2757980367584">
   <path class="fil0" d="M1986.89 105.34c623.52,218.12 1021.08,856.21 1005.74,1503.44 -26.28,1110.16 -1000.67,1442.58 -1000.67,1442.58 575.42,-275.33 858.74,-829 888.12,-1442.58 11.16,-232.8 -37.76,-464.47 -119.84,-672.68 -236.18,-599.06 -773.36,-830.76 -773.36,-830.76z"/>
   <path class="fil0" d="M2626.12 2414.73c-29.81,1.96 -53.59,26.97 -53.59,57.26l0 0c0,8.32 1.79,16.22 4.99,23.34 5.97,-9.22 11.84,-18.5 17.6,-27.87 10.69,-17.35 21.02,-34.95 31,-52.74z"/>
   <path class="fil0" d="M2692.29 2282.81c-29.61,2.18 -53.15,27.09 -53.15,57.24l0 0c0,11.94 3.67,23.05 9.98,32.25 15.3,-29.32 29.68,-59.15 43.17,-89.49z"/>
   <path class="fil0" d="M2743.56 2153.23l-3.89 0c-31.57,0 -57.41,25.84 -57.41,57.41l0 0c0,18.18 8.57,34.43 21.83,44.98 14.24,-33.57 27.38,-67.71 39.47,-102.39z"/>
   <path class="fil0" d="M2784.69 2018.12l-8.86 0c-31.57,0 -57.41,25.82 -57.41,57.41l0 0c0,23.17 13.9,43.24 33.8,52.3 11.94,-36.05 22.76,-72.66 32.47,-109.71z"/>
   <path class="fil0" d="M2813.4 1890.28l-24.08 0c-31.57,0 -57.41,25.84 -57.41,57.41l0 0c0,31.15 25.13,56.72 56.14,57.41 9.59,-37.81 18.04,-76.11 25.35,-114.82z"/>
   <path class="fil0" d="M2834.57 1751.35l-30.17 0c-31.59,0 -57.41,25.84 -57.41,57.41l0 0c0,31.59 25.82,57.41 57.41,57.41l13.41 0c6.68,-37.91 12.26,-76.18 16.76,-114.82z"/>
   <path class="fil0" d="M2845.63 1621.95l-22.85 0c-31.57,0 -57.41,25.82 -57.41,57.41l0 0c0,31.57 25.84,57.41 57.41,57.41l13.46 0c4.16,-37.98 7.29,-76.28 9.39,-114.82z"/>
   <path class="fil0" d="M2847.05 1493.96l-26.19 0c-31.57,0 -57.41,25.84 -57.41,57.41l0 0c0,31.59 25.84,57.41 57.41,57.41l25.45 0 0.07 -1.59c1.81,-37.76 1.98,-75.54 0.66,-113.23z"/>
   <path class="fil0" d="M2836.14 1360.1l-29.22 0c-31.57,0 -57.41,25.84 -57.41,57.41l0 0.02c0,31.57 25.84,57.39 57.41,57.39l39.33 0c-1.86,-38.42 -5.29,-76.72 -10.11,-114.82z"/>
   <path class="fil0" d="M2814.33 1231.33l-27.06 0c-31.59,0 -57.41,25.84 -57.41,57.41l0 0c0,31.57 25.82,57.41 57.41,57.41l47.01 0c-2.91,-21.39 -6.27,-42.68 -10.04,-63.9 -3.03,-17.06 -6.34,-34.02 -9.91,-50.93z"/>
   <path class="fil0" d="M2780.29 1097.47l-25.38 0c-31.59,0 -57.41,25.84 -57.41,57.41l0 0c0,31.59 25.82,57.41 57.41,57.41l55.28 0c-8.66,-38.74 -18.67,-77.06 -29.91,-114.82z"/>
   <path class="fil0" d="M2733.26 959.82l-12.6 0c-31.59,0 -57.41,25.84 -57.41,57.41l0 0c0,31.59 25.82,57.41 57.41,57.41l52.69 0c-12.14,-38.93 -25.55,-77.26 -40.09,-114.82z"/>
   <path class="fil0" d="M2674.5 827.21l-15.2 0c-31.57,0 -57.39,25.82 -57.39,57.41l0 0c0,31.57 25.82,57.41 57.39,57.41l66.91 0c-15.98,-39.96 -33.31,-78.21 -51.71,-114.82z"/>
   <path class="fil0" d="M2600.86 697.53l-6.73 0c-31.59,0 -57.41,25.82 -57.41,57.38l0 0.03c0,31.57 25.82,57.41 57.41,57.41l72.8 0c-20.82,-40.28 -42.95,-78.55 -66.07,-114.82z"/>
   <path class="fil0" d="M2508.78 568.52c-27.92,3.82 -49.63,27.92 -49.63,56.87l0 0c0,31.57 25.84,57.41 57.41,57.41l74.79 0c-26.53,-40.6 -54.23,-78.68 -82.57,-114.28z"/>
   <path class="fil0" d="M2392.9 438.45c-23.64,7.12 -40.97,29.12 -40.97,54.99l0 0c0,31.59 25.84,57.41 57.41,57.41l85.19 0c-33.43,-40.74 -67.57,-78.16 -101.63,-112.4z"/>
   <path class="fil0" d="M2262.79 321.11c-9.23,10.21 -14.88,23.71 -14.88,38.47l0 0c0,31.59 25.82,57.41 57.41,57.41l65.85 0c-36.83,-35.6 -73.29,-67.52 -108.38,-95.88z"/>
   <path class="fil0" d="M2537.97 2553.51c-24.59,6.48 -42.85,28.97 -42.85,55.5l0 0.03 0.03 1.32c14.73,-18.62 29.02,-37.56 42.83,-56.85z"/>
   <path class="fil0" d="M2720.78 1556.78l-197.34 0c0.17,10.55 0.27,21.12 0.27,31.72l-0.03 10.01 211.19 0c-8.1,-12.33 -13.12,-26.55 -14.1,-41.73zm20.41 -69.13l-219.68 0c0.73,17.33 1.32,34.73 1.66,52.22l198.22 0c2.55,-18.62 11.26,-35.58 24.15,-49.04 -1.49,-1.03 -2.94,-2.08 -4.36,-3.18zm-35.34 -63.35l-187.82 0c1.05,15.42 1.98,30.88 2.74,46.45l203.41 0c-10.35,-13.31 -16.96,-29.24 -18.33,-46.45zm19.58 -61.52c-2.35,-1.56 -4.6,-3.23 -6.78,-4.97l-206.15 0c1.59,16.45 3.06,32.96 4.3,49.58l189.39 0c2.01,-16.57 8.89,-31.86 19.24,-44.61zm-40.97 -71.06l-179.26 0c2.03,16.3 3.94,32.69 5.65,49.16l191.34 0c-10.64,-14.07 -17.1,-30.98 -17.74,-49.16zm4.26 -64.07l-192.42 0c2.4,15.64 4.68,31.32 6.76,47.16l182.51 0c2.42,-14.29 8.44,-27.55 17.18,-38.89 -4.94,-2.4 -9.62,-5.16 -14.02,-8.27zm-39.03 -68.59l-164.96 0c3.16,17.13 6.17,34.33 8.96,51.66l176.61 0c-12.09,-14.46 -19.65,-32.3 -20.61,-51.66zm19.9 -59.1c-2.59,-1.13 -5.14,-2.35 -7.61,-3.7l-189.78 0c3.25,15.22 6.41,30.49 9.37,45.89l168.98 0c2.4,-15.64 9.13,-30.08 19.04,-42.19zm-55.84 -69.62l-156.77 0c4.04,16.22 7.91,32.55 11.55,49.01l170.67 0c-13.36,-13.34 -22.52,-30.29 -25.45,-49.01zm10.86 -56.41c-9.25,-1.83 -18.01,-4.89 -26.14,-8.98l-158.77 0c4.53,16.03 8.88,32.18 13.04,48.48l160.04 0c0.66,-14.22 4.87,-27.63 11.82,-39.5zm-76.57 -74.32l-127.91 0c5.09,15.98 10.01,32.13 14.73,48.43l139.66 0c-13.63,-13.07 -23.13,-29.83 -26.48,-48.43zm8.69 -54.94c-11.3,-1.98 -21.93,-5.77 -31.52,-11.04l-127.3 0c5.78,16.18 11.36,32.55 16.76,49.07l132.05 0c0.32,-13.58 3.89,-26.48 10.01,-38.03zm-80.15 -87.12l-107.65 0c7.88,19.46 15.51,39.15 22.83,59.17l110.91 0c-15.61,-15.74 -25.4,-36.49 -26.09,-59.17zm9.18 -41.01c-22.44,-1.18 -42.95,-9.45 -58.93,-22.44l-84.96 0c6.87,15.34 13.6,30.84 20.14,46.54l115.75 0c1.47,-8.47 4.18,-16.57 8,-24.1zm-92.55 -85.87l-81.39 0c7.64,15.3 15.1,30.79 22.37,46.52l76.38 0c-10.04,-13.41 -16.3,-29.37 -17.35,-46.52zm10.25 -45.93l-27.61 0c-21.46,0 -41.4,-6.51 -57.61,-17.5l-39.74 0c8.44,15.27 16.71,30.76 24.76,46.52l90.57 0c1.44,-10.28 4.75,-20.07 9.62,-29.02zm-125.2 -80.95l-36.76 0c9.37,15.25 18.55,30.73 27.51,46.52l30.22 0c-11.3,-13.09 -18.82,-29.1 -20.97,-46.52zm10.77 -52.91l-25.18 0c-16.42,0 -31.94,-3.8 -45.59,-10.52l-18.06 0c10.45,15.17 20.7,30.69 30.73,46.52l46.96 0c1,-12.89 4.92,-25.08 11.13,-36zm-121.6 -73.98l-13.53 0c11.72,15.13 23.22,30.64 34.48,46.54l5.51 0c-13.26,-12.6 -22.68,-28.68 -26.45,-46.54zm11.89 -63.43l-77.94 0c13.29,15.05 26.36,30.54 39.15,46.52l25.11 0 0 -0.39c0,-11.33 2.37,-22.39 6.68,-32.74 1.93,-4.65 4.28,-9.13 7,-13.39zm57.51 -21.27c-17.08,-15 -34.46,-29.46 -52.15,-43.44l-144.99 0c15.78,15.32 31.27,31.25 46.45,47.8l107.04 0c11.8,-10.4 29.76,-12.19 43.66,-4.36zm-74.05 -60.35c-22.17,-16.76 -44.81,-32.72 -67.86,-47.82l-128.26 0c18.75,15.12 37.17,31.05 55.21,47.82l140.91 0zm-94.39 -64.73c-32.57,-20.16 -65.93,-38.64 -99.99,-55.4l-104.69 0c27.73,16.76 54.87,35.24 81.37,55.4l123.31 0zm-136.01 -72.32c-136.63,-61.3 -284.07,-94.75 -437.9,-94.75 -2.96,0 -5.87,0.1 -8.83,0.12 122.46,1.27 239.82,34.56 348.77,94.63l97.96 0zm591.19 1520.65c-0.2,17.2 -0.56,34.36 -1.1,51.41l201.11 0c2.91,-19.4 12.48,-36.93 26.5,-50.51l-0.52 -0.47 -0.46 -0.44 -225.53 0zm-1.69 68.32c-0.54,14.1 -1.2,28.12 -1.98,42.09l216.6 0c-8,-12.48 -12.92,-26.82 -13.73,-42.09l-200.89 0zm-2.99 59c-1.15,18.36 -2.52,36.61 -4.06,54.77l188.77 0c2.77,-20.61 13.04,-39.18 28.21,-53.25l1.67 -1.52 -214.59 0zm-5.58 71.68c-1.47,15.66 -3.09,31.25 -4.85,46.74l212.39 0c-10.2,-13.43 -16.64,-29.46 -17.81,-46.74l-189.73 0zm-6.83 63.65c-1.88,15.74 -3.94,31.4 -6.14,46.96l189.39 0c4.48,-16.03 13.58,-30.42 25.87,-41.85 1.93,-1.79 3.92,-3.47 5.97,-5.12l-215.08 0zm-8.61 63.87c-2.57,17.18 -5.31,34.24 -8.25,51.17l210.19 0c-8.37,-13.44 -13.16,-28.95 -13.16,-45.45 0,-1.91 0.07,-3.82 0.19,-5.73l-188.97 0zm-11.23 68.08c-3.06,16.84 -6.27,33.55 -9.67,50.14l196.56 0c3.5,-18.96 13.41,-36.02 27.55,-49.16l1.08 -0.98 -215.52 0zm-13.22 67.05c-3.7,17.3 -7.56,34.45 -11.65,51.46l226.85 0 1.5 -0.66 -1.08 -1.44 -1.25 -1.66c-9.62,-13.85 -15.32,-30.22 -15.66,-47.69l-198.71 0zm-15.76 68.4c-3.62,14.58 -7.39,29.1 -11.28,43.46l189.66 0c4.36,-16.42 13.58,-31.15 26.11,-42.8l0.73 -0.66 -205.22 0zm-15.96 60.4c-4.57,16.4 -9.37,32.65 -14.31,48.72l218.12 0c-0.86,-1.44 -1.69,-2.91 -2.45,-4.38 -6.31,-12.09 -9.86,-25.52 -9.86,-39.59 0,-1.59 0.05,-3.18 0.12,-4.75l-191.61 0zm-19.6 65.66c-4.72,14.9 -9.62,29.66 -14.63,44.29l182.83 0c4.28,-14.29 12.21,-27.21 22.83,-37.81 2.27,-2.27 4.65,-4.43 7.17,-6.48l-198.2 0zm-20.56 61.2c-6.85,19.36 -13.97,38.47 -21.36,57.31l190.07 0c8.57,-3.89 17.87,-6.68 27.61,-8.12 -2.67,-4.77 -4.89,-9.81 -6.65,-15.1 -2.89,-8.66 -4.43,-17.67 -4.43,-26.8 0,-2.45 0.1,-4.87 0.29,-7.29l-185.52 0zm-28.07 74.22c-6.34,15.71 -12.85,31.23 -19.53,46.54l163.18 0c3.74,-16.69 12.45,-31.76 24.59,-43.83 0.93,-0.93 1.88,-1.81 2.84,-2.71l-171.08 0zm-27.02 63.45c-7.07,15.71 -14.32,31.23 -21.73,46.52l204.14 0c-2.03,-2.28 -3.79,-4.87 -5.16,-7.71 -2.79,-5.77 -4.97,-11.92 -6.44,-18.28 -1.44,-6.29 -2.2,-12.63 -2.2,-18.96l0.03 -1.57 -168.64 0zm-30.08 63.43c-7.88,15.76 -15.93,31.28 -24.18,46.52l144.58 0c3.53,-9.79 8.81,-18.89 15.52,-26.94 6.24,-7.54 13.78,-14.15 22.22,-19.58l-158.13 0zm-33.48 63.46c-8.78,15.78 -17.77,31.3 -26.94,46.52l192.15 0 2.77 -3.82c-10.37,-5.26 -17.69,-15.07 -18.82,-26.58 -0.19,-1.44 -0.29,-2.91 -0.29,-4.4 0,-3.97 0.27,-7.88 0.81,-11.72l-149.67 0zm-37.32 63.43c-9.84,15.83 -19.9,31.35 -30.17,46.52l184.1 0c12.33,-15.22 24.4,-30.73 36.17,-46.52l-190.1 0zm-41.8 63.46c-11.09,15.86 -22.39,31.4 -33.94,46.52l175.02 0c13.9,-15.17 27.46,-30.69 40.72,-46.52l-181.8 0zm-47.11 63.43c-12.6,15.96 -25.47,31.49 -38.59,46.52l164.77 0c15.78,-15.07 31.23,-30.61 46.27,-46.52l-172.45 0zm-53.64 63.43c-14.56,16.08 -29.44,31.62 -44.59,46.52l152.85 0c18.25,-14.95 36.09,-30.47 53.52,-46.52l-161.78 0zm-62.16 63.46c-17.25,16.25 -34.85,31.79 -52.76,46.52l138.48 0c21.71,-14.78 42.9,-30.32 63.58,-46.52l-149.3 0zm-73.95 63.43c-21.36,16.62 -43.17,32.13 -65.41,46.52l120.25 0c27.09,-14.42 53.49,-29.98 79.21,-46.52l-134.06 0zm-92.53 63.46c-117.85,70.35 -246.62,109.44 -381.91,110.83 183.64,1.47 349.41,-38.98 496.17,-110.83l-114.26 0z"/>
   <path class="fil0" d="M1006.19 3046.91c-623.52,-218.09 -1021.08,-856.21 -1005.76,-1503.44 26.31,-1110.16 1000.69,-1442.58 1000.69,-1442.58 -575.42,275.33 -858.73,829 -888.12,1442.58 -11.16,232.8 37.74,464.47 119.84,672.68 236.17,599.06 773.35,830.76 773.35,830.76z"/>
   <path class="fil0" d="M366.94 737.54c29.83,-1.98 53.62,-26.99 53.62,-57.29l0 0c0,-8.3 -1.79,-16.22 -4.99,-23.34 -5.97,9.23 -11.84,18.5 -17.59,27.87 -10.7,17.35 -21.02,34.95 -31.03,52.76z"/>
   <path class="fil0" d="M300.77 869.44c29.61,-2.18 53.18,-27.09 53.18,-57.24l0 0c0,-11.94 -3.7,-23.05 -9.98,-32.25 -15.3,29.32 -29.68,59.17 -43.19,89.49z"/>
   <path class="fil0" d="M249.53 999.02l3.86 0c31.59,0 57.41,-25.84 57.41,-57.41l0 0c0,-18.18 -8.54,-34.43 -21.83,-44.98 -14.22,33.57 -27.36,67.71 -39.45,102.39z"/>
   <path class="fil0" d="M208.39 1134.13l8.86 0c31.57,0 57.41,-25.82 57.41,-57.41l0 0c0,-23.15 -13.92,-43.24 -33.79,-52.3 -11.94,36.07 -22.76,72.66 -32.47,109.71z"/>
   <path class="fil0" d="M179.66 1261.97l24.11 0c31.57,0 57.41,-25.84 57.41,-57.41l0 0c0,-31.15 -25.16,-56.7 -56.14,-57.39 -9.62,37.78 -18.06,76.08 -25.38,114.8z"/>
   <path class="fil0" d="M158.49 1400.9l30.2 0c31.57,0 57.41,-25.84 57.41,-57.41l0 0c0,-31.57 -25.84,-57.41 -57.41,-57.41l-13.43 0c-6.65,37.91 -12.24,76.21 -16.76,114.82z"/>
   <path class="fil0" d="M147.46 1530.3l22.86 0c31.57,0 57.38,-25.82 57.38,-57.41l0 0c0,-31.57 -25.82,-57.41 -57.38,-57.41l-13.46 0c-4.16,37.98 -7.29,76.28 -9.39,114.82z"/>
   <path class="fil0" d="M146.04 1658.29l26.16 0c31.59,0 57.41,-25.84 57.41,-57.41l0 0c0,-31.57 -25.82,-57.41 -57.41,-57.41l-25.43 0 -0.07 1.59c-1.81,37.76 -2,75.54 -0.66,113.23z"/>
   <path class="fil0" d="M156.95 1792.15l29.22 0c31.57,0 57.38,-25.84 57.38,-57.41l0 0c0,-31.59 -25.82,-57.41 -57.38,-57.41l-39.35 0c1.88,38.42 5.29,76.72 10.13,114.82z"/>
   <path class="fil0" d="M178.75 1920.92l27.06 0c31.57,0 57.41,-25.82 57.41,-57.41l0 0c0,-31.57 -25.84,-57.41 -57.41,-57.41l-47.03 0c2.91,21.39 6.26,42.68 10.06,63.89 3.03,17.06 6.34,34.04 9.91,50.93z"/>
   <path class="fil0" d="M212.77 2054.78l25.4 0c31.57,0 57.41,-25.84 57.41,-57.41l0 0c0,-31.59 -25.84,-57.41 -57.41,-57.41l-55.28 0c8.66,38.74 18.67,77.06 29.88,114.82z"/>
   <path class="fil0" d="M259.83 2192.43l12.6 0c31.57,0 57.41,-25.84 57.41,-57.41l0 0c0,-31.57 -25.84,-57.41 -57.41,-57.41l-52.69 0c12.14,38.93 25.55,77.26 40.09,114.82z"/>
   <path class="fil0" d="M318.58 2325.04l15.17 0c31.59,0 57.41,-25.82 57.41,-57.39l0 -0.02c0,-31.57 -25.82,-57.41 -57.41,-57.41l-66.88 0c15.96,39.96 33.28,78.21 51.71,114.82z"/>
   <path class="fil0" d="M392.19 2454.74l6.76 0c31.57,0 57.41,-25.84 57.41,-57.41l0 -0.03c0,-31.57 -25.84,-57.39 -57.41,-57.39l-72.8 0c20.82,40.26 42.95,78.53 66.05,114.82z"/>
   <path class="fil0" d="M484.28 2583.73c27.95,-3.82 49.65,-27.92 49.65,-56.87l0 0c0,-31.57 -25.84,-57.41 -57.41,-57.41l-74.79 0c26.53,40.6 54.21,78.68 82.54,114.28z"/>
   <path class="fil0" d="M600.18 2713.8c23.61,-7.12 40.97,-29.12 40.97,-54.99l0 0c0,-31.57 -25.84,-57.41 -57.41,-57.41l-85.19 0c33.41,40.74 67.57,78.16 101.63,112.4z"/>
   <path class="fil0" d="M730.27 2831.14c9.25,-10.21 14.9,-23.71 14.9,-38.47l0 0c0,-31.59 -25.84,-57.41 -57.41,-57.41l-65.85 0c36.81,35.6 73.29,67.52 108.36,95.88z"/>
   <path class="fil0" d="M455.11 598.74c24.57,-6.48 42.83,-28.97 42.83,-55.5l0 0 0 -1.35c-14.76,18.63 -29.02,37.59 -42.83,56.85z"/>
   <path class="fil0" d="M272.31 1595.47l197.31 0c-0.15,-10.55 -0.24,-21.1 -0.24,-31.69l0 -10.04 -211.17 0c8.08,12.36 13.12,26.58 14.1,41.73zm-20.41 69.15l219.66 0c-0.73,-17.35 -1.3,-34.75 -1.67,-52.25l-198.2 0c-2.57,18.62 -11.26,35.58 -24.15,49.04 1.47,1.03 2.94,2.11 4.36,3.21zm35.34 63.36l187.82 0c-1.07,-15.42 -1.98,-30.91 -2.74,-46.45l-203.43 0c10.35,13.31 16.96,29.24 18.35,46.45zm-19.58 61.52c2.35,1.56 4.6,3.21 6.78,4.97l206.13 0c-1.59,-16.45 -3.03,-32.97 -4.28,-49.58l-189.39 0c-2.01,16.57 -8.89,31.84 -19.24,44.61zm40.97 71.04l179.26 0c-2.03,-16.3 -3.97,-32.67 -5.65,-49.16l-191.34 0c10.62,14.07 17.1,30.98 17.74,49.16zm-4.26 64.09l192.42 0c-2.4,-15.64 -4.7,-31.35 -6.78,-47.16l-182.51 0c-2.4,14.29 -8.42,27.53 -17.16,38.89 4.92,2.4 9.62,5.17 14.02,8.27zm39.03 68.57l164.96 0c-3.16,-17.1 -6.19,-34.31 -8.95,-51.66l-176.64 0c12.11,14.46 19.67,32.33 20.63,51.66zm-19.9 59.1c2.59,1.15 5.14,2.37 7.59,3.69l189.8 0c-3.26,-15.2 -6.41,-30.47 -9.37,-45.89l-169 0c-2.4,15.66 -9.13,30.08 -19.02,42.19zm55.84 69.62l156.74 0c-4.01,-16.2 -7.88,-32.52 -11.55,-48.99l-170.64 0c13.36,13.31 22.51,30.27 25.45,48.99zm-10.89 56.43c9.25,1.84 18.04,4.87 26.14,8.96l158.8 0c-4.53,-16.01 -8.88,-32.15 -13.04,-48.45l-160.07 0c-0.64,14.19 -4.85,27.63 -11.82,39.5zm76.6 74.3l127.89 0c-5.06,-15.98 -9.98,-32.13 -14.71,-48.41l-139.66 0c13.6,13.07 23.1,29.83 26.48,48.41zm-8.69 54.96c11.28,1.96 21.93,5.75 31.52,11.04l127.28 0c-5.75,-16.2 -11.33,-32.55 -16.74,-49.07l-132.05 0c-0.32,13.58 -3.89,26.48 -10.01,38.03zm80.15 87.12l107.62 0c-7.88,-19.46 -15.49,-39.18 -22.83,-59.17l-110.91 0c15.64,15.74 25.43,36.46 26.11,59.17zm-9.18 40.99c22.44,1.18 42.92,9.47 58.9,22.44l84.99 0c-6.88,-15.32 -13.61,-30.81 -20.14,-46.52l-115.75 0c-1.47,8.47 -4.18,16.54 -8,24.08zm92.55 85.87l81.37 0c-7.61,-15.27 -15.07,-30.79 -22.34,-46.52l-76.38 0c10.01,13.41 16.27,29.37 17.35,46.52zm-10.25 45.93l27.61 0c21.46,0 41.38,6.53 57.61,17.52l39.74 0c-8.47,-15.27 -16.71,-30.76 -24.79,-46.52l-90.55 0c-1.44,10.28 -4.77,20.04 -9.62,29zm125.2 80.95l36.76 0c-9.37,-15.22 -18.55,-30.73 -27.53,-46.52l-30.2 0c11.3,13.12 18.82,29.12 20.97,46.52zm-10.79 52.91l25.18 0c16.42,0 31.96,3.82 45.59,10.55l18.09 0c-10.48,-15.2 -20.73,-30.69 -30.74,-46.52l-46.96 0c-1,12.89 -4.92,25.08 -11.16,35.97zm121.6 73.98l13.56 0c-11.72,-15.12 -23.22,-30.64 -34.51,-46.52l-5.51 0c13.29,12.58 22.71,28.66 26.46,46.52zm-11.87 63.43l77.94 0c-13.31,-15.03 -26.36,-30.54 -39.15,-46.52l-25.11 0 0 0.39c0,11.33 -2.37,22.39 -6.71,32.74 -1.93,4.65 -4.28,9.13 -6.97,13.39zm-57.53 21.29c17.08,14.98 34.48,29.46 52.17,43.44l144.99 0c-15.78,-15.32 -31.27,-31.25 -46.45,-47.79l-107.04 0c-11.82,10.38 -29.76,12.16 -43.68,4.36zm74.05 60.35c22.2,16.76 44.83,32.69 67.86,47.79l128.26 0c-18.75,-15.1 -37.15,-31.03 -55.21,-47.79l-140.91 0zm94.41 64.7c32.57,20.16 65.9,38.67 99.99,55.4l104.69 0c-27.73,-16.74 -54.89,-35.24 -81.37,-55.4l-123.31 0zm136.02 72.34c136.62,61.3 284.06,94.75 437.9,94.75 2.94,0 5.87,-0.12 8.83,-0.15 -122.46,-1.25 -239.85,-34.56 -348.77,-94.61l-97.96 0zm-591.19 -1520.65c0.17,-17.23 0.54,-34.36 1.08,-51.42l-201.11 0c-2.91,19.38 -12.48,36.93 -26.48,50.51l0.51 0.47 0.47 0.44 225.53 0zm1.69 -68.32c0.53,-14.1 1.2,-28.12 1.98,-42.09l-216.62 0c8.03,12.45 12.94,26.82 13.75,42.09l200.89 0zm2.98 -59c1.15,-18.38 2.5,-36.63 4.06,-54.79l-188.77 0c-2.77,20.63 -13.07,39.18 -28.22,53.28l-1.66 1.52 214.59 0zm5.58 -71.7c1.47,-15.66 3.06,-31.23 4.82,-46.72l-212.36 0c10.21,13.41 16.64,29.44 17.81,46.72l189.73 0zm6.8 -63.65c1.91,-15.74 3.97,-31.38 6.17,-46.94l-189.41 0c-4.45,16.03 -13.56,30.42 -25.87,41.85 -1.91,1.76 -3.89,3.47 -5.95,5.09l215.06 0zm8.64 -63.87c2.55,-17.16 5.31,-34.21 8.22,-51.15l-210.19 0c8.37,13.41 13.19,28.95 13.19,45.42 0,1.93 -0.07,3.84 -0.19,5.73l188.97 0zm11.23 -68.06c3.03,-16.84 6.27,-33.55 9.67,-50.14l-196.56 0c-3.52,18.96 -13.41,36 -27.55,49.14l-1.08 1 215.52 0zm13.22 -67.05c3.67,-17.3 7.56,-34.48 11.63,-51.49l-226.83 0 -1.52 0.66 1.1 1.44 1.23 1.69c9.62,13.85 15.34,30.2 15.66,47.69l198.73 0zm15.76 -68.4c3.62,-14.61 7.36,-29.1 11.28,-43.49l-189.66 0c-4.38,16.42 -13.58,31.15 -26.14,42.83l-0.71 0.66 205.22 0zm15.93 -60.4c4.6,-16.4 9.37,-32.65 14.32,-48.75l-218.09 0c0.86,1.44 1.67,2.91 2.45,4.41 6.31,12.07 9.86,25.5 9.86,39.57 0,1.59 -0.05,3.18 -0.15,4.77l191.61 0zm19.63 -65.66c4.72,-14.9 9.62,-29.68 14.63,-44.32l-182.85 0c-4.26,14.29 -12.21,27.21 -22.81,37.83 -2.27,2.25 -4.67,4.43 -7.19,6.48l198.22 0zm20.53 -61.23c6.88,-19.36 14,-38.47 21.36,-57.31l-190.07 0c-8.57,3.92 -17.84,6.71 -27.58,8.15 2.65,4.77 4.89,9.81 6.63,15.1 2.89,8.66 4.45,17.67 4.45,26.77 0,2.45 -0.1,4.89 -0.32,7.29l185.52 0zm28.09 -74.22c6.31,-15.69 12.85,-31.2 19.53,-46.52l-163.18 0c-3.74,16.66 -12.45,31.76 -24.62,43.83 -0.93,0.9 -1.86,1.81 -2.84,2.69l171.11 0zm27.02 -63.43c7.07,-15.73 14.29,-31.25 21.73,-46.52l-204.14 0c2.03,2.27 3.77,4.85 5.16,7.68 2.79,5.8 4.97,11.92 6.44,18.28 1.44,6.29 2.2,12.65 2.2,18.96l-0.02 1.59 168.63 0zm30.08 -63.45c7.86,-15.74 15.91,-31.25 24.18,-46.52l-144.58 0c-3.53,9.81 -8.83,18.89 -15.51,26.97 -6.27,7.54 -13.78,14.14 -22.25,19.55l158.16 0zm33.48 -63.43c8.78,-15.78 17.74,-31.3 26.94,-46.52l-192.15 0 -2.77 3.82c10.37,5.24 17.69,15.07 18.79,26.55 0.22,1.44 0.32,2.94 0.32,4.43 0,3.97 -0.27,7.88 -0.83,11.72l149.69 0zm37.32 -63.46c9.84,-15.81 19.9,-31.35 30.15,-46.52l-184.08 0c-12.33,15.22 -24.4,30.76 -36.17,46.52l190.1 0zm41.77 -63.43c11.09,-15.88 22.42,-31.4 33.97,-46.52l-175.04 0c-13.88,15.17 -27.43,30.69 -40.7,46.52l181.77 0zm47.11 -63.43c12.63,-15.98 25.48,-31.5 38.62,-46.54l-164.77 0c-15.78,15.1 -31.23,30.61 -46.3,46.54l172.45 0zm53.67 -63.45c14.56,-16.08 29.41,-31.59 44.56,-46.52l-152.83 0c-18.25,14.98 -36.09,30.49 -53.52,46.52l161.78 0zm62.16 -63.43c17.25,-16.25 34.82,-31.82 52.76,-46.52l-138.48 0c-21.73,14.76 -42.9,30.29 -63.58,46.52l149.3 0zm73.93 -63.46c21.39,-16.59 43.19,-32.13 65.41,-46.52l-120.23 0c-27.09,14.44 -53.5,29.98 -79.21,46.52l134.03 0zm92.55 -63.43c117.83,-70.35 246.62,-109.44 381.91,-110.83 -183.66,-1.49 -349.41,38.98 -496.17,110.83l114.26 0z"/>
   <path class="fil1" d="M1481.18 1780.18l-12.47 0c-61.12,138.46 -189.61,230.77 -343.05,230.77 -97.3,0 -172.15,-44.91 -223.29,-116.01 -57.38,-81.08 -86.07,-195.85 -86.07,-319.34 0,-123.5 31.19,-233.27 84.83,-310.61 52.39,-74.85 125.99,-119.76 214.56,-119.76 69.86,0 139.71,23.7 198.34,67.36 57.38,42.41 104.78,102.29 134.72,175.89l9.98 0 -33.68 -259.47 -9.98 0c1.24,4.99 1.24,9.98 1.24,16.22 0,16.22 -4.99,37.42 -18.71,48.65 -41.17,-22.46 -87.32,-38.67 -132.23,-49.9 -53.64,-12.47 -107.28,-17.47 -155.93,-17.47 -137.22,0 -253.23,48.65 -335.56,127.24 -86.07,82.33 -135.97,195.85 -135.97,321.84 0,125.99 47.4,243.25 138.46,326.83 94.81,88.57 223.29,123.5 349.29,123.5 107.28,0 218.3,-26.2 319.34,-62.38l36.17 -183.37zm-160.92 -575.07l-19.96 -13.72 71.1 0 23.7 12.47 -74.84 1.25zm76.09 4.99l2.5 12.47 -56.14 0 -16.22 -12.47 69.86 0zm2.5 17.46l2.49 13.72 -38.67 0 -14.97 -13.72 51.15 0zm-71.1 -53.64l32.43 12.48 -67.36 0c-7.48,-3.74 -14.97,-8.73 -23.7,-12.48l58.63 0zm51.14 84.83l-11.22 -12.47 34.93 0 1.25 12.47 -24.95 0zm26.2 4.99l2.5 13.72 -12.48 0 -11.22 -13.72 21.21 0zm2.5 18.71l2.49 14.97 -11.22 -14.97 8.73 0zm-147.2 -113.52l-31.19 -13.72 39.92 0c14.97,3.74 29.94,8.73 44.91,13.72l-53.64 0zm-44.91 -17.47c-17.47,-6.24 -33.68,-9.98 -51.14,-12.47 27.44,2.49 54.89,6.24 83.58,12.47l-32.43 0zm-271.94 17.47c24.95,-11.23 51.14,-19.96 77.34,-24.95 3.74,-1.25 6.24,-1.25 9.98,-1.25 -23.7,6.24 -47.4,14.97 -67.36,27.45l-19.96 -1.25zm-36.18 17.47l24.95 -12.48 24.95 0c-7.48,3.74 -13.72,8.73 -19.96,12.48l-29.94 0zm6.24 18.71l-36.18 0 21.21 -13.72 31.19 0 -16.21 13.72zm-18.71 17.47l-42.41 0 18.71 -12.47 37.42 0 -13.72 12.47zm-16.22 18.71l-47.4 0 14.97 -13.72 44.91 0 -12.47 13.72zm-53.64 4.99l49.9 0 -9.98 12.47 -44.91 0 0 -7.48 4.99 -4.99zm608.75 621.23l-4.99 0 7.48 -11.23 -2.5 11.23zm-572.58 -603.76l-8.73 13.72 -52.39 0c8.73,-2.5 16.22,-7.48 18.71,-13.72l42.41 0zm555.11 621.22l9.98 -12.47 6.24 0 -2.49 12.47 -13.72 0zm-567.58 -602.51l-7.48 12.48 -44.91 0c0,-6.24 -1.24,-9.98 -4.99,-12.48l57.38 0zm551.37 619.98l11.22 -12.47 17.47 0 -2.5 12.47 -26.19 0zm-561.35 -602.51l-6.24 12.47 -54.89 0c7.48,-2.49 14.97,-7.48 17.47,-12.47l43.66 0zm542.64 621.23c4.99,-3.74 9.98,-8.73 13.72,-13.72l29.94 0 -2.49 13.72 -41.17 0zm-600.02 -628.71c0,4.99 -3.74,11.23 -9.98,13.72l9.98 -13.72zm48.65 24.95l-6.24 13.72 -46.15 0c0,-6.24 -2.5,-9.98 -6.24,-13.72l58.63 0zm530.16 621.23c6.24,-3.74 11.22,-8.73 16.22,-12.48l44.91 0 -2.5 12.48 -58.63 0zm-538.9 -602.52l-6.24 12.48 -56.14 0c8.73,-2.5 14.97,-7.48 17.47,-12.48l44.91 0zm515.2 621.23c6.24,-4.99 12.47,-8.73 17.46,-13.72l64.87 0 -3.74 13.72 -78.59 0zm-522.68 -603.76l-4.99 13.72 -49.9 0c0,-4.99 -1.25,-9.98 -6.24,-13.72l61.12 0zm-53.64 -31.19c1.25,2.5 2.5,4.99 2.5,7.48 0,7.48 -7.48,13.72 -17.47,14.97l14.97 -22.45zm47.4 49.9l-4.99 12.47 -59.88 0c7.48,-2.49 13.72,-7.48 16.22,-12.47l48.65 0zm571.33 602.51l-72.35 0 22.46 -11.23 84.83 0 -34.93 11.23zm-577.56 -585.05l-3.74 13.72 -49.9 0c0,-4.99 -2.5,-9.98 -6.24,-13.72l59.88 0zm-76.09 -8.73c4.99,-7.48 8.73,-16.22 13.72,-24.95 3.74,2.5 4.99,6.24 4.99,9.98 0,7.48 -7.48,13.72 -18.71,14.97zm71.1 27.44l-3.74 12.48 -59.88 0c7.48,-2.5 12.47,-7.48 14.97,-12.48l48.65 0zm-4.99 17.47l-2.5 13.72 -51.14 0c0,-4.99 -2.5,-9.98 -7.48,-13.72l61.12 0zm571.33 553.86c-19.96,6.24 -39.92,11.23 -58.63,14.97l-38.67 0c9.98,-4.99 21.21,-8.73 32.43,-14.97l64.86 0zm-641.18 -590.04c7.48,2.49 11.23,7.48 11.23,13.72 0,7.48 -9.98,14.97 -22.46,14.97l11.23 -28.69zm66.12 53.64l-2.5 13.72 -62.37 0c7.48,-3.74 12.47,-7.48 14.97,-13.72l49.9 0zm-3.74 18.71l-1.25 12.48 -49.9 0c0,-4.99 -3.74,-8.73 -8.73,-12.48l59.88 0zm-84.83 -7.48c2.5,-9.98 4.99,-19.96 8.73,-29.94 8.73,2.5 14.97,7.48 14.97,14.97 0,8.73 -9.98,14.97 -23.7,14.97zm82.33 24.95l-1.24 13.72 -61.13 0c6.24,-3.74 11.23,-7.48 12.48,-13.72l49.9 0zm-2.49 18.71l-1.25 12.47 -47.4 0c0,-4.99 -2.5,-8.73 -7.48,-12.47l56.14 0zm501.47 501.47c-21.21,3.74 -42.41,7.48 -63.62,9.98 12.47,-2.5 23.7,-6.24 34.93,-9.98l28.69 0zm-590.04 -508.96c1.25,-9.98 3.74,-19.96 6.24,-29.94 11.23,0 21.21,7.48 21.21,14.97 0,8.73 -11.23,14.97 -27.45,14.97zm87.32 24.95l-1.25 13.72 -58.63 0c6.24,-3.74 11.22,-8.73 12.47,-13.72l47.4 0zm-102.29 59.88c0,119.76 44.91,234.52 129.73,321.84 32.43,32.43 71.1,61.12 113.52,82.33 -53.64,-21.21 -98.55,-49.9 -135.97,-83.58 -88.57,-82.33 -134.72,-198.34 -134.72,-320.59 0,-123.5 48.65,-234.52 132.23,-314.36 41.16,-39.92 91.06,-71.1 147.2,-92.31 -47.4,22.45 -89.82,53.64 -125.99,91.06 -77.34,81.08 -125.99,193.35 -125.99,315.6zm101.04 -41.17c0,3.74 -1.25,8.73 -1.25,12.48l-51.14 0c0,-4.99 -3.74,-8.73 -8.73,-12.48l61.12 0zm-92.31 -6.24c1.25,-9.98 2.49,-21.21 4.99,-31.19 12.48,0 26.2,3.74 26.2,14.97 0,8.73 -9.98,16.22 -22.45,16.22l-8.73 0zm91.06 23.7l0 13.72 -62.37 0c4.99,-3.74 9.98,-8.73 11.23,-13.72l51.14 0zm0 18.71l0 12.47 -49.9 0c-1.25,-4.99 -3.74,-9.98 -9.98,-12.47l59.88 0zm0 17.46l0 13.72 -61.12 0c6.24,-3.74 9.98,-8.73 11.23,-13.72l49.9 0zm-82.33 -53.64c9.98,1.25 16.22,7.48 16.22,13.72 0,8.73 -9.98,16.22 -22.46,16.22l-4.99 0c0,-9.98 1.25,-21.21 2.5,-29.94l8.73 0zm82.33 71.1c1.25,4.99 1.25,8.73 1.25,13.72l-47.4 0c-1.25,-4.99 -4.99,-9.98 -9.98,-13.72l56.14 0zm1.25 18.71c0,3.74 1.25,8.73 1.25,12.47l-58.63 0c4.99,-2.5 8.73,-7.48 9.98,-12.47l47.4 0zm-93.56 -23.7c0,-8.73 -1.25,-16.22 -1.25,-24.95l0 -6.24 6.24 0c12.48,0 22.45,7.48 22.45,16.22 0,8.73 -9.98,14.97 -22.45,14.97l-4.99 0zm94.81 41.16c1.25,4.99 1.25,8.73 1.25,13.72l-46.15 0c0,-4.99 -4.99,-9.98 -9.98,-13.72l54.89 0zm2.5 18.71c0,3.74 1.24,8.73 1.24,12.48l-57.38 0c4.99,-2.5 8.73,-7.49 9.98,-12.48l46.16 0zm-97.3 -53.64l8.73 0c12.47,0 22.45,6.24 22.45,14.97 0,8.73 -9.98,14.97 -22.45,14.97l-4.99 0 -3.74 -29.94zm99.79 71.1l2.5 13.72 -42.41 0c-1.25,-4.99 -4.99,-9.98 -11.22,-13.72l51.14 0zm2.5 18.71l2.5 12.48 -53.64 0c6.24,-3.74 8.73,-7.48 9.98,-12.48l41.17 0zm3.74 17.47l2.5 13.72 -37.42 0c-2.5,-6.24 -6.24,-9.98 -12.48,-13.72l47.4 0zm-96.05 -41.16l-6.24 -28.69c3.74,-1.25 6.24,-1.25 8.73,-1.25 12.48,0 23.7,6.24 23.7,14.97 0,7.48 -8.73,13.72 -18.71,14.97l-7.48 0zm99.79 59.88l3.74 12.47 -51.14 0c4.99,-3.74 8.73,-7.48 8.73,-12.47l38.67 0zm4.99 17.47l3.74 13.72 -32.43 0c-2.5,-6.24 -7.48,-9.98 -13.72,-13.72l42.41 0zm-93.56 -71.1c13.72,0 24.95,7.48 24.95,14.97 0,8.73 -14.97,14.97 -27.44,14.97l-8.73 -29.94 11.22 0zm99.8 88.57l3.74 13.72 -46.15 0c4.99,-3.74 7.48,-8.73 7.48,-13.72l34.93 0zm4.99 18.71c2.5,3.74 3.74,8.73 4.99,12.47l-27.44 0c-1.25,-4.99 -6.24,-9.98 -13.72,-12.47l36.17 0zm-104.79 -71.1l11.23 0c13.72,0 23.7,7.48 23.7,16.22 0,7.48 -9.98,14.97 -23.7,14.97l-11.23 -31.19zm112.27 88.57l4.99 13.72 -41.16 0c4.99,-3.74 7.48,-8.73 7.48,-13.72l28.69 0zm150.94 182.13c14.97,7.48 31.19,14.97 47.4,21.21 -22.45,-4.99 -44.91,-12.48 -66.12,-21.21l18.71 0zm-143.46 -163.42l6.24 12.48 -21.21 0c-2.5,-4.99 -7.48,-9.98 -14.97,-12.48l29.94 0zm8.73 17.47l7.48 13.72 -37.42 0c4.99,-3.74 7.48,-8.73 7.48,-13.72l22.45 0zm9.98 18.71l7.48 12.47 -12.48 0c-2.49,-4.99 -8.73,-9.98 -16.22,-12.47l21.21 0zm-124.74 -106.03l13.72 0c12.47,0 22.45,6.24 22.45,14.97 0,8.73 -9.98,14.97 -22.45,14.97l-13.72 -29.94zm135.97 123.5l8.73 13.72 -31.19 0c4.99,-3.74 6.24,-8.73 6.24,-13.72l16.22 0zm12.48 18.71l9.98 12.48 -9.98 0c-2.5,-4.99 -8.73,-9.98 -16.22,-12.48l16.22 0zm71.1 86.07c-9.98,-3.74 -19.96,-8.73 -29.94,-14.97l29.94 0c7.48,6.24 14.97,9.98 22.45,14.97l-22.45 0zm-57.38 -68.61l11.22 13.72 -28.69 0c3.74,-3.74 4.99,-8.73 4.99,-13.72l12.48 0zm-130.98 -123.5c12.47,0 23.7,6.24 23.7,14.97 0,7.48 -8.73,14.97 -21.21,14.97 -4.99,-8.73 -12.47,-19.96 -17.47,-29.94l14.97 0zm149.69 172.15l-21.21 -12.48 37.42 0c4.99,4.99 11.23,8.73 16.22,12.48l-32.43 0zm-46.15 -31.19l42.41 0 14.97 13.72 -39.92 0 -17.47 -13.72zm-77.34 -76.1l-19.96 -28.69 16.22 0c12.47,0 23.7,7.48 23.7,14.97 0,6.24 -4.99,11.23 -11.23,13.72l-8.73 0zm31.19 36.18l-24.95 -28.69 18.71 0c12.47,0 22.45,7.48 22.45,16.21 0,7.48 -4.99,12.48 -9.98,12.48l-6.24 0zm7.48 7.48l14.97 0c12.48,0 23.7,7.48 23.7,16.22 0,3.74 -1.25,8.73 -6.24,11.22l-32.43 -27.44z"/>
   <path id="_1" class="fil1" d="M1589.71 2022.19l397.93 0 0 -9.98c-41.17,-6.24 -76.09,-19.96 -108.53,-47.4l0 -346.79 128.48 0c91.07,0 172.15,-31.19 223.29,-77.34 48.65,-43.66 81.09,-103.53 81.09,-165.91 0,-62.38 -26.2,-119.76 -68.62,-160.92 -42.41,-42.41 -111.02,-68.61 -188.36,-68.61l-474.03 0 0 9.98c19.96,3.74 43.66,9.98 66.11,18.71 18.71,7.48 37.43,17.47 51.15,28.69l0 762.19c-31.19,27.45 -67.36,41.17 -108.53,47.4l0 9.98zm590.04 -780.9c-1.25,-6.24 -6.24,-11.23 -11.23,-13.72l46.15 0 11.23 13.72 -46.15 0zm-34.93 -36.18c-1.25,-6.24 -6.24,-9.98 -13.72,-13.72l39.92 0 18.71 13.72 -44.91 0zm-9.98 17.47c6.24,-2.5 9.98,-7.48 11.23,-12.47l49.9 0 13.72 12.47 -74.85 0zm32.43 36.17c7.48,-2.49 11.23,-7.48 12.48,-12.47l49.9 0 9.98 12.47 -72.35 0zm28.69 17.47c-1.24,-4.99 -6.24,-9.98 -13.72,-12.47l59.88 0 7.48 12.47 -53.64 0zm-99.79 -88.57c-6.24,-6.24 -12.47,-11.22 -18.71,-14.97l56.13 0c9.98,3.74 19.96,8.73 29.94,14.97l-67.36 0zm88.57 107.28c6.24,-3.74 9.98,-7.48 11.22,-13.72l56.14 0 6.24 13.72 -73.6 0zm22.45 17.46c-1.25,-4.99 -6.24,-9.98 -13.72,-12.47l67.36 0 3.74 12.47 -57.38 0zm-137.22 -144.7l-24.95 -12.48c26.19,1.25 51.14,3.74 74.84,12.48l-49.9 0zm37.42 26.2c12.47,0 21.21,6.24 21.21,13.72 0,3.74 -1.25,7.48 -4.99,9.98 -6.24,-8.73 -13.72,-16.22 -21.21,-23.7l4.99 0zm88.57 135.97c6.24,-2.49 9.98,-7.48 11.23,-12.47l59.88 0c1.25,3.74 2.5,8.73 2.5,12.47l-73.6 0zm-54.89 -101.04c12.48,0 21.21,7.48 21.21,14.97 0,6.24 -4.99,12.48 -14.97,13.72 -3.74,-9.98 -8.73,-19.96 -14.97,-28.69l8.73 0zm71.1 119.76c-1.24,-6.24 -6.24,-9.98 -13.72,-13.72l72.35 0c1.25,4.99 2.5,8.73 2.5,13.72l-61.13 0zm-53.64 -83.58c11.23,0 19.96,6.24 19.96,14.97 0,6.24 -6.24,12.47 -16.22,13.72 -2.5,-9.98 -6.24,-19.96 -9.98,-28.69l6.24 0zm42.41 101.04c6.24,-2.5 9.98,-7.48 11.22,-12.48l62.37 0 0 12.48 -73.6 0zm-31.19 -64.87c12.47,0 21.21,6.24 21.21,13.72 0,8.73 -8.73,14.97 -19.96,14.97 -1.25,-9.98 -3.74,-18.71 -6.24,-28.69l4.99 0zm43.66 83.58c-1.25,-6.24 -6.24,-11.22 -13.72,-13.72l76.09 0 0 13.72 -62.37 0zm-11.22 17.47c6.24,-3.74 11.22,-7.48 11.22,-13.72l62.37 0c-1.25,4.99 -1.25,8.73 -1.25,13.72l-72.35 0zm-29.94 -64.87c11.23,0 22.46,3.74 22.46,13.72 0,7.48 -7.48,14.97 -19.96,14.97 0,-9.98 -1.25,-19.96 -2.5,-28.69zm36.18 82.33c-1.25,-4.99 -6.24,-9.98 -13.72,-12.48l78.59 0c0,3.74 -1.25,8.73 -2.5,12.48l-62.37 0zm-11.23 18.71c6.24,-3.74 11.23,-7.48 11.23,-13.72l61.12 0 -3.74 13.72 -68.61 0zm-22.45 -66.11c8.73,0 22.45,3.74 22.45,14.97 0,7.48 -8.73,14.97 -21.21,14.97 0,0 -1.25,-16.22 -1.25,-23.7l0 -6.24zm26.2 83.58c-2.5,-6.24 -7.48,-9.98 -14.97,-12.47l78.59 0 -4.99 12.47 -58.63 0zm-27.45 -47.4c11.23,1.25 18.71,7.48 18.71,14.97 0,7.48 -8.73,13.72 -21.21,13.72 0,-8.73 2.49,-18.71 2.49,-28.69zm16.22 64.87c6.24,-2.5 9.98,-7.48 11.23,-12.47l56.14 0 -6.24 12.47 -61.12 0zm-2.49 18.71c-1.25,-6.24 -6.24,-9.98 -13.72,-13.72l74.85 0 -8.73 13.72 -52.39 0zm-157.18 107.28c23.7,-9.98 44.91,-24.95 61.12,-46.15 32.43,-38.67 48.65,-97.3 48.65,-173.39 0,-69.86 -17.47,-128.49 -48.65,-169.65 -18.71,-24.95 -42.41,-43.66 -71.1,-54.89 34.93,2.5 81.08,42.41 99.79,68.61 28.69,38.67 48.65,92.31 48.65,154.68 0,66.12 -17.47,118.51 -44.91,155.93 -26.2,36.18 -59.88,58.63 -93.56,64.87zm138.46 -154.68c8.73,2.49 14.97,7.48 14.97,14.97 0,7.48 -8.73,13.72 -21.21,13.72 0,0 4.99,-23.7 6.24,-28.69zm7.48 64.86c6.24,-2.49 11.23,-7.48 11.23,-12.47l48.65 0 -9.98 12.47 -49.9 0zm-4.99 17.47c-1.25,-4.99 -6.24,-8.73 -13.72,-12.47l64.87 0c-3.74,4.99 -8.73,8.73 -12.47,12.47l-38.67 0zm-12.48 -44.91c7.48,1.25 12.48,7.48 12.48,12.47 0,8.73 -16.22,14.97 -24.95,14.97 4.99,-8.73 9.98,-23.7 12.47,-27.44zm1.25 63.62c6.24,-3.74 9.98,-7.48 11.23,-13.72l33.68 0 -16.22 13.72 -28.69 0zm-280.67 58.63l0 -401.68c28.69,-22.45 73.6,-38.67 108.53,-44.91 39.92,4.99 72.35,26.2 96.05,58.63 29.94,39.92 46.15,96.05 46.15,163.41 0,74.84 -16.22,129.73 -46.15,167.16 -31.19,38.67 -76.1,57.38 -134.72,57.38l-69.86 0zm-240.76 -449.08l264.46 0 -31.19 14.97 -189.61 0 -43.66 -14.97zm485.25 390.45c7.48,-8.73 13.72,-18.71 18.71,-27.45 6.24,2.5 9.98,6.24 9.98,11.23 0,7.48 -7.48,14.97 -18.71,16.22l-9.98 0zm-289.41 -353.03l0 12.47 -61.13 0c0,-4.99 -2.49,-8.73 -7.48,-12.47l68.61 0zm-137.22 -17.47l164.66 0 -24.95 11.23 -103.54 0 -36.17 -11.23zm436.6 387.96c0,-4.99 -3.74,-8.73 -8.73,-12.48 2.49,1.25 4.99,1.25 8.73,1.25 3.74,0 8.73,-1.25 12.48,-1.25l36.17 0c-6.24,3.74 -12.47,8.73 -19.96,12.48l-28.69 0zm-299.38 -339.31l-68.61 0c3.74,-3.74 7.48,-8.73 7.48,-13.72l61.13 0 0 13.72zm0 17.47l-61.13 0c0,-4.99 -3.74,-9.98 -7.48,-12.48l68.61 0 0 12.48zm289.41 340.55c6.24,-3.74 9.98,-8.73 9.98,-13.72l21.21 0 -31.19 13.72zm-289.41 -321.84l-68.61 0c3.74,-3.74 7.48,-8.73 7.48,-13.72l61.13 0 0 13.72zm-98.55 -64.87c2.5,-1.24 3.74,-1.24 6.24,-1.24 9.98,0 18.71,6.24 18.71,13.72 0,7.48 -8.73,13.72 -18.71,13.72l-6.24 0 0 -26.2zm376.73 363.01c2.5,2.5 3.74,4.99 3.74,7.48 0,7.48 -3.74,11.23 -8.73,13.72 -6.24,2.5 -13.72,2.5 -19.96,2.5 8.73,-7.48 17.47,-14.97 24.95,-23.7zm-278.18 -280.67l-61.13 0c0,-4.99 -3.74,-9.98 -7.48,-13.72l68.61 0 0 13.72zm0 17.47l-68.61 0c3.74,-3.74 7.48,-7.48 7.48,-12.48l61.13 0 0 12.48zm-98.55 -64.87l6.24 0c9.98,0 18.71,6.24 18.71,13.72 0,7.48 -8.73,13.72 -18.71,13.72l-6.24 0 0 -27.44zm98.55 83.58l-61.13 0c0,-4.99 -3.74,-9.98 -7.48,-13.72l68.61 0 0 13.72zm261.96 273.19c6.24,0 12.48,0 17.47,-1.24 -18.71,7.48 -38.67,11.22 -58.63,13.72 8.73,-3.74 16.22,-7.48 24.95,-13.72 4.99,1.24 9.98,1.24 16.22,1.24zm-261.96 -255.72l-68.61 0c3.74,-3.74 7.48,-7.48 7.48,-13.72l61.13 0 0 13.72zm-98.55 -64.87l6.24 0c9.98,0 18.71,6.24 18.71,13.72 0,7.48 -8.73,13.72 -18.71,13.72l-6.24 0 0 -27.45zm98.55 82.33l-61.13 0c0,-4.99 -3.74,-8.73 -7.48,-12.48l68.61 0 0 12.48zm0 18.71l-68.61 0c3.74,-3.74 7.48,-8.73 7.48,-13.72l61.13 0 0 13.72zm-98.55 -66.11l6.24 0c9.98,0 18.71,6.24 18.71,14.97 0,7.48 -8.73,13.72 -18.71,13.72l-6.24 0 0 -28.69zm98.55 83.58l-61.13 0c0,-4.99 -3.74,-9.98 -7.48,-12.47l68.61 0 0 12.47zm0 17.47l-68.61 0c3.74,-2.5 7.48,-7.48 7.48,-12.47l61.13 0 0 12.47zm-98.55 -64.87l6.24 0c9.98,0 18.71,6.24 18.71,13.72 0,7.48 -8.73,13.72 -18.71,13.72l-6.24 0 0 -27.45zm98.55 83.58l-61.13 0c0,-4.99 -3.74,-9.98 -7.48,-13.72l68.61 0 0 13.72zm0 17.46l-68.61 0c3.74,-3.74 7.48,-7.48 7.48,-12.47l61.13 0 0 12.47zm-98.55 -64.86l6.24 0c9.98,0 18.71,6.24 18.71,13.72 0,7.48 -8.73,13.72 -18.71,13.72l-6.24 0 0 -27.44zm98.55 82.33l-61.13 0c0,-4.99 -3.74,-8.73 -7.48,-12.47l68.61 0 0 12.47zm0 18.71l-68.61 0c3.74,-3.74 7.48,-8.73 7.48,-13.72l61.13 0 0 13.72zm-98.55 -64.87l6.24 0c9.98,0 18.71,6.24 18.71,13.72 0,7.48 -8.73,13.72 -18.71,13.72l-6.24 0 0 -27.45zm98.55 82.33l-61.13 0c0,-4.99 -3.74,-8.73 -7.48,-12.48l68.61 0 0 12.48zm0 18.71l-68.61 0c3.74,-3.74 7.48,-8.73 7.48,-13.72l61.13 0 0 13.72zm-98.55 -66.11l6.24 0c9.98,0 18.71,6.24 18.71,13.72 0,8.73 -8.73,14.97 -18.71,14.97l-6.24 0 0 -28.69zm98.55 83.58l-61.13 0c0,-4.99 -3.74,-9.98 -7.48,-13.72l68.61 0 0 13.72zm0 17.47l-68.61 0c3.74,-2.5 7.48,-7.48 7.48,-12.48l61.13 0 0 12.48zm-98.55 -64.87l6.24 0c9.98,0 18.71,6.24 18.71,13.72 0,7.48 -8.73,13.72 -18.71,13.72l-6.24 0 0 -27.45zm98.55 83.58l-61.13 0c0,-4.99 -3.74,-9.98 -7.48,-13.72l68.61 0 0 13.72zm0 17.47l-68.61 0c3.74,-3.74 7.48,-7.48 7.48,-12.47l61.13 0 0 12.47zm-98.55 -64.87l6.24 0c9.98,0 18.71,6.24 18.71,13.72 0,7.48 -8.73,13.72 -18.71,13.72l-6.24 0 0 -27.45zm98.55 82.33l-61.13 0c0,-4.99 -3.74,-8.73 -7.48,-12.48l68.61 0 0 12.48zm0 18.71l-68.61 0c3.74,-3.74 7.48,-8.73 7.48,-13.72l61.13 0 0 13.72zm-98.55 -64.87l6.24 0c9.98,0 18.71,6.24 18.71,13.72 0,7.48 -8.73,13.72 -18.71,13.72l-6.24 0 0 -27.44zm98.55 82.33l-61.13 0c0,-4.99 -3.74,-9.98 -7.48,-12.47l68.61 0 0 12.47zm0 18.71l-68.61 0c3.74,-3.74 7.48,-8.73 7.48,-13.72l61.13 0 0 13.72zm-98.55 -66.12l6.24 0c9.98,0 18.71,6.24 18.71,13.72 0,7.48 -8.73,13.72 -18.71,13.72l-6.24 0 0 -27.45zm98.55 83.58l-61.13 0c0,-4.99 -3.74,-9.98 -7.48,-13.72l68.61 0 0 13.72zm0 17.46l-68.61 0c3.74,-3.74 7.48,-7.48 7.48,-12.47l61.13 0 0 12.47zm-155.93 301.88c11.23,-6.24 19.96,-13.72 29.94,-22.45l0 -770.92c-13.72,-11.22 -28.69,-19.96 -44.91,-27.44l66.12 21.21 0 784.64 -51.15 14.97zm57.38 -366.75l6.24 0c9.98,0 18.71,6.24 18.71,13.72 0,7.48 -8.73,13.72 -18.71,13.72l-6.24 0 0 -27.44zm98.55 83.58l-61.13 0c0,-4.99 -3.74,-9.98 -7.48,-13.72l68.61 0 0 13.72zm0 17.47l-68.61 0c3.74,-3.74 7.48,-7.48 7.48,-13.72l61.13 0 0 13.72zm-98.55 -64.87l6.24 0c9.98,0 18.71,6.24 18.71,13.72 0,7.48 -8.73,13.72 -18.71,13.72l-6.24 0 0 -27.45zm98.55 82.33l-61.13 0c0,-4.99 -3.74,-8.73 -7.48,-12.48l68.61 0 0 12.48zm0 18.71l-68.61 0c3.74,-3.74 7.48,-8.73 7.48,-13.72l61.13 0 0 13.72zm-98.55 -66.11l6.24 0c9.98,0 18.71,6.24 18.71,14.97 0,7.48 -8.73,13.72 -18.71,13.72l-6.24 0 0 -28.69zm98.55 83.58l-61.13 0c0,-4.99 -3.74,-9.98 -7.48,-12.47l68.61 0 0 12.47zm0 17.47l-68.61 0c3.74,-2.5 7.48,-7.48 7.48,-12.48l61.13 0 0 12.48zm-98.55 -64.87l6.24 0c9.98,0 18.71,6.24 18.71,13.72 0,7.48 -8.73,13.72 -18.71,13.72l-6.24 0 0 -27.45zm98.55 83.58l-61.13 0c0,-4.99 -3.74,-9.98 -7.48,-13.72l68.61 0 0 13.72zm0 17.47l-68.61 0c3.74,-3.74 7.48,-7.48 7.48,-12.47l61.13 0 0 12.47zm-98.55 -64.87l6.24 0c9.98,0 18.71,6.24 18.71,13.72 0,7.48 -8.73,13.72 -18.71,13.72l-6.24 0 0 -27.45zm98.55 82.33l-61.13 0c0,-4.99 -3.74,-8.73 -7.48,-12.47l68.61 0 0 12.47zm0 18.71l-68.61 0c3.74,-3.74 7.48,-8.73 7.48,-13.72l61.13 0 0 13.72zm-98.55 -64.87l6.24 0c9.98,0 18.71,6.24 18.71,13.72 0,7.48 -8.73,13.72 -18.71,13.72l-6.24 0 0 -27.44zm98.55 82.33l-61.13 0c0,-4.99 -3.74,-8.73 -7.48,-12.47l68.61 0 0 12.47zm0 18.71l-68.61 0c3.74,-3.74 7.48,-8.73 7.48,-13.72l61.13 0 0 13.72zm-98.55 -66.12l6.24 0c9.98,0 18.71,6.24 18.71,13.72 0,8.73 -8.73,14.97 -18.71,14.97l-6.24 0 0 -28.69zm98.55 83.58l-61.13 0c0,-4.99 -3.74,-9.98 -7.48,-13.72l68.61 0 0 13.72zm0 17.46l-68.61 0c3.74,-2.49 7.48,-7.48 7.48,-12.47l61.13 0 0 12.47zm-98.55 -64.86l6.24 0c9.98,0 18.71,6.24 18.71,13.72 0,7.48 -8.73,13.72 -18.71,13.72l-6.24 0 0 -27.44zm98.55 83.58l-61.13 0c0,-4.99 -3.74,-9.98 -7.48,-13.72l68.61 0 0 13.72zm-67.36 16.22c3.74,-2.5 6.24,-7.48 6.24,-11.23l61.13 0 0 11.23 -67.36 0zm-31.19 -63.62l6.24 0c9.98,0 18.71,6.24 18.71,13.72 0,7.48 -8.73,13.72 -18.71,13.72l-6.24 0 0 -27.45zm148.45 84.83l-197.1 0 46.15 -13.72 104.79 0 46.15 13.72zm-148.45 -48.65l6.24 0c9.98,0 18.71,6.24 18.71,13.72 0,7.48 -8.73,13.72 -18.71,13.72l-6.24 0 0 -27.44zm203.33 64.86l-305.62 0 37.42 -11.22 228.28 0 39.92 11.22z"/>
  </g>
 </g>
</svg>
